# File created by Blade
# Date/Time:  Thu Sep 25 18:58:07 2014
# Frame Rate: 120.000 fps
#------------------------------------------------------
:FULLY-SPECIFIED
:DEGREES
1562
root 1.701019 32.842054 1.938543 11.105684 2.873178 0.207400
Spine -11.503142 6.368195 -0.747745
Head -4.588474 -11.052875 9.447983
LeftShoulder -20.263202 23.237574 3.585080
LeftArm -9.553802 59.762974 -102.569222
LeftForeArm 18.539666 -0.000000 19.337380
LeftHand -15.828244 -0.000000 -47.665645
LeftHandThumb1 -26.253704 0.000000 33.147579
RightShoulder -26.569855 0.886889 -18.316043
RightArm -50.372310 -37.406133 139.728673
RightForeArm -21.059686 -0.000000 20.093337
RightHand 38.498385 0.000000 38.993997
RightHandThumb1 -24.326973 -0.000000 -32.862282
LeftUpLeg -3.641821 7.962406 3.117388
LeftLeg -4.756706 -0.000000 0.000000
LeftFoot -5.431896 -3.078847 -17.704985
LeftToeBase 8.399877 -0.000000 -0.000000
RightUpLeg -3.377054 -12.738561 -6.255356
RightLeg -1.753398 -0.000000 0.000000
RightFoot -4.126098 -1.198911 4.398506
RightToeBase -3.242913 -0.000000 0.000000
1563
root 1.699568 32.840966 1.935866 11.167845 2.865682 0.195407
Spine -11.643898 6.376762 -0.754198
Head -4.466371 -11.042388 9.416892
LeftShoulder -20.098413 23.098374 3.497945
LeftArm -9.100897 59.831948 -102.259360
LeftForeArm 18.880972 -0.000000 19.495499
LeftHand -15.717881 -0.000000 -47.999370
LeftHandThumb1 -26.253704 0.000000 33.147579
RightShoulder -26.457982 1.127735 -18.222872
RightArm -50.519845 -37.790195 139.991436
RightForeArm -20.833829 -0.000000 20.339310
RightHand 36.847673 -0.000000 38.744882
RightHandThumb1 -24.326973 -0.000000 -32.862282
LeftUpLeg -3.686910 7.962610 3.125106
LeftLeg -4.803124 -0.000000 0.000000
LeftFoot -5.423353 -3.073075 -17.731585
LeftToeBase 8.486882 -0.000000 -0.000000
RightUpLeg -3.407017 -12.743063 -6.227866
RightLeg -1.838958 -0.000000 0.000000
RightFoot -4.077211 -1.189635 4.378736
RightToeBase -3.251252 -0.000000 0.000000
1564
root 1.698457 32.838509 1.932704 11.201617 2.883615 0.184755
Spine -11.727153 6.378121 -0.757427
Head -4.417189 -11.043803 9.423782
LeftShoulder -19.941812 22.938218 3.437584
LeftArm -8.661221 59.953858 -101.989470
LeftForeArm 19.350801 -0.000000 19.616489
LeftHand -15.642379 -0.000000 -48.440529
LeftHandThumb1 -26.253704 0.000000 33.147579
RightShoulder -26.437367 1.333480 -18.085997
RightArm -50.403343 -38.158251 139.899845
RightForeArm -19.278141 0.000000 20.588742
RightHand 34.236558 -0.000000 38.941464
RightHandThumb1 -24.326973 -0.000000 -32.862282
LeftUpLeg -3.715612 7.936301 3.139718
LeftLeg -4.829842 -0.000000 0.000000
LeftFoot -5.428563 -3.078445 -17.744323
LeftToeBase 8.462703 -0.000000 -0.000000
RightUpLeg -3.427617 -12.786311 -6.206423
RightLeg -1.870145 -0.000000 0.000000
RightFoot -4.076176 -1.143722 4.423170
RightToeBase -3.268929 -0.000000 0.000000
1565
root 1.709796 32.837548 1.924927 11.290471 2.815277 0.208044
Spine -11.892352 6.438855 -0.779811
Head -4.324132 -11.062125 9.362870
LeftShoulder -19.797217 22.808323 3.348216
LeftArm -8.264663 60.064657 -101.751357
LeftForeArm 19.758508 0.000000 19.733295
LeftHand -15.457901 -0.000000 -48.709454
LeftHandThumb1 -26.253704 0.000000 33.147579
RightShoulder -26.344534 1.557368 -18.010244
RightArm -50.658390 -38.675228 140.294207
RightForeArm -18.888252 -0.000000 20.839734
RightHand 32.652648 -0.000000 38.760356
RightHandThumb1 -24.326973 -0.000000 -32.862282
LeftUpLeg -3.792599 7.961269 3.069753
LeftLeg -4.860122 -0.000000 0.000000
LeftFoot -5.424835 -3.020521 -17.716031
LeftToeBase 8.408154 -0.000000 -0.000000
RightUpLeg -3.540009 -12.798277 -6.233302
RightLeg -1.881287 -0.000000 0.000000
RightFoot -4.060978 -1.088159 4.405089
RightToeBase -3.252964 -0.000000 0.000000
1566
root 1.713092 32.836772 1.921016 11.348479 2.796667 0.221796
Spine -12.020421 6.443343 -0.809833
Head -4.248551 -11.088980 9.335935
LeftShoulder -19.678247 22.691846 3.281305
LeftArm -7.868133 60.204332 -101.487556
LeftForeArm 20.127036 -0.000000 19.839934
LeftHand -15.349142 -0.000000 -48.925974
LeftHandThumb1 -26.253704 0.000000 33.147579
RightShoulder -26.271340 1.751072 -17.907215
RightArm -50.957709 -39.223940 140.761080
RightForeArm -19.034166 -0.000000 21.100799
RightHand 31.395017 0.000000 38.416930
RightHandThumb1 -24.326973 -0.000000 -32.862282
LeftUpLeg -3.845695 7.931339 3.034946
LeftLeg -4.866291 -0.000000 0.000000
LeftFoot -5.458907 -2.924978 -17.747768
LeftToeBase 8.431269 -0.000000 -0.000000
RightUpLeg -3.596676 -12.814353 -6.240859
RightLeg -1.906953 -0.000000 0.000000
RightFoot -4.049041 -1.062719 4.404444
RightToeBase -3.258219 -0.000000 0.000000
1567
root 1.713953 32.835250 1.919868 11.386946 2.782339 0.225006
Spine -12.122733 6.423981 -0.820241
Head -4.194994 -11.099302 9.292722
LeftShoulder -19.620768 22.587037 3.188536
LeftArm -7.504128 60.397699 -101.199748
LeftForeArm 20.415558 -0.000000 19.977367
LeftHand -15.560534 -0.000000 -49.407245
LeftHandThumb1 -26.253704 0.000000 33.147579
RightShoulder -26.208392 1.961904 -17.823629
RightArm -51.270096 -39.682472 141.149075
RightForeArm -19.563857 0.000000 21.376323
RightHand 30.189668 -0.000000 37.965571
RightHandThumb1 -24.326973 -0.000000 -32.862282
LeftUpLeg -3.873785 7.936500 3.023472
LeftLeg -4.888598 -0.000000 0.000000
LeftFoot -5.468099 -2.917032 -17.751862
LeftToeBase 8.454392 -0.000000 -0.000000
RightUpLeg -3.625704 -12.816816 -6.242794
RightLeg -1.935334 -0.000000 0.000000
RightFoot -4.040810 -1.035662 4.407772
RightToeBase -3.271735 -0.000000 0.000000
1568
root 1.718992 32.834456 1.917517 11.422821 2.693792 0.217171
Spine -12.225459 6.500257 -0.814536
Head -4.131734 -11.121217 9.199980
LeftShoulder -19.568573 22.501409 3.065359
LeftArm -7.147848 60.498177 -100.902475
LeftForeArm 20.719262 -0.000000 20.060790
LeftHand -15.784133 -0.000000 -49.775223
LeftHandThumb1 -26.253704 0.000000 33.147579
RightShoulder -26.146171 2.076132 -17.774425
RightArm -51.438318 -40.116122 141.489928
RightForeArm -20.283061 0.000000 21.460600
RightHand 29.055015 -0.000000 37.480405
RightHandThumb1 -24.326973 -0.000000 -32.862282
LeftUpLeg -3.886738 7.998424 3.002839
LeftLeg -4.917016 -0.000000 0.000000
LeftFoot -5.472480 -2.888159 -17.740850
LeftToeBase 8.473089 -0.000000 -0.000000
RightUpLeg -3.685524 -12.735029 -6.251608
RightLeg -1.931501 -0.000000 0.000000
RightFoot -4.030641 -1.021462 4.446648
RightToeBase -3.281404 -0.000000 0.000000
1569
root 1.720215 32.834042 1.918393 11.447570 2.670577 0.223042
Spine -12.330026 6.514035 -0.834116
Head -4.023292 -11.168582 9.129456
LeftShoulder -19.494615 22.432055 2.989513
LeftArm -6.895120 60.489565 -100.687820
LeftForeArm 20.992965 0.000000 20.117634
LeftHand -16.206276 -0.000000 -50.629326
LeftHandThumb1 -26.253704 0.000000 33.147579
RightShoulder -26.164012 2.124368 -17.695166
RightArm -51.636379 -40.570523 141.826423
RightForeArm -20.908621 -0.000000 21.544756
RightHand 27.675448 -0.000000 37.090493
RightHandThumb1 -24.326973 -0.000000 -32.862282
LeftUpLeg -3.899927 8.002119 2.991409
LeftLeg -4.916323 -0.000000 0.000000
LeftFoot -5.486991 -2.920991 -17.753207
LeftToeBase 8.617247 -0.000000 -0.000000
RightUpLeg -3.706138 -12.724709 -6.257521
RightLeg -1.947283 -0.000000 0.000000
RightFoot -4.028733 -1.010596 4.449547
RightToeBase -3.269187 -0.000000 0.000000
1570
root 1.720298 32.832803 1.921701 11.452433 2.661179 0.224118
Spine -12.414245 6.502184 -0.849910
Head -3.921556 -11.208287 9.078845
LeftShoulder -19.451416 22.418387 2.926618
LeftArm -6.641358 60.471560 -100.485552
LeftForeArm 21.099723 -0.000000 20.173591
LeftHand -16.214883 -0.000000 -50.859019
LeftHandThumb1 -26.253704 0.000000 33.147579
RightShoulder -26.158366 2.158644 -17.630910
RightArm -51.776719 -40.927412 142.056694
RightForeArm -20.942018 -0.000000 21.736403
RightHand 26.060410 -0.000000 37.006831
RightHandThumb1 -24.326973 -0.000000 -32.862282
LeftUpLeg -3.891607 8.031033 2.996554
LeftLeg -4.948725 -0.000000 0.000000
LeftFoot -5.450220 -2.942643 -17.724495
LeftToeBase 8.453289 -0.000000 -0.000000
RightUpLeg -3.691714 -12.720529 -6.261094
RightLeg -1.978522 -0.000000 0.000000
RightFoot -4.015833 -0.997585 4.445461
RightToeBase -3.288286 -0.000000 0.000000
1571
root 1.720437 32.832116 1.927020 11.436531 2.634909 0.218588
Spine -12.480628 6.517418 -0.859871
Head -3.800446 -11.251857 9.026346
LeftShoulder -19.391575 22.409143 2.868013
LeftArm -6.512372 60.358018 -100.365103
LeftForeArm 21.069781 -0.000000 20.225606
LeftHand -16.263157 -0.000000 -51.132095
LeftHandThumb1 -26.253704 0.000000 33.147579
RightShoulder -26.132478 2.158223 -17.561409
RightArm -51.942391 -41.237442 142.298108
RightForeArm -21.170140 -0.000000 21.889592
RightHand 24.548217 -0.000000 36.896160
RightHandThumb1 -24.326973 -0.000000 -32.862282
LeftUpLeg -3.860648 8.033539 2.999256
LeftLeg -4.941712 -0.000000 0.000000
LeftFoot -5.485260 -2.906588 -17.772013
LeftToeBase 8.463457 -0.000000 -0.000000
RightUpLeg -3.663928 -12.696046 -6.269814
RightLeg -1.991550 -0.000000 0.000000
RightFoot -4.015407 -0.963914 4.496773
RightToeBase -3.262726 -0.000000 0.000000
1572
root 1.720985 32.831234 1.934307 11.407781 2.618871 0.222061
Spine -12.525688 6.500357 -0.875286
Head -3.707316 -11.269302 8.999170
LeftShoulder -19.383422 22.432006 2.806181
LeftArm -6.411588 60.243085 -100.243405
LeftForeArm 20.938057 0.000000 20.294011
LeftHand -16.382838 -0.000000 -51.182318
LeftHandThumb1 -26.253704 0.000000 33.147579
RightShoulder -26.063261 2.162338 -17.480502
RightArm -52.168289 -41.515793 142.573314
RightForeArm -20.981769 0.000000 22.070693
RightHand 22.921335 -0.000000 36.940203
RightHandThumb1 -24.326973 -0.000000 -32.862282
LeftUpLeg -3.815000 8.051819 3.005821
LeftLeg -4.951005 -0.000000 0.000000
LeftFoot -5.473227 -2.948839 -17.719083
LeftToeBase 8.446182 -0.000000 -0.000000
RightUpLeg -3.616027 -12.680706 -6.285434
RightLeg -2.007288 -0.000000 0.000000
RightFoot -4.026913 -0.963834 4.507481
RightToeBase -3.270846 -0.000000 0.000000
